<?xml version="1.0" encoding="UTF-8" standalone="no"?>
<svg
   height="16"
   viewBox="0 0 16 16"
   width="16"
   version="1.1"
   id="svg1"
   sodipodi:docname="la_ik_two_bone.svg"
   inkscape:version="1.3.2 (1:1.3.2+202404261509+091e20ef0f)"
   xmlns:inkscape="http://www.inkscape.org/namespaces/inkscape"
   xmlns:sodipodi="http://sodipodi.sourceforge.net/DTD/sodipodi-0.dtd"
   xmlns="http://www.w3.org/2000/svg"
   xmlns:svg="http://www.w3.org/2000/svg">
  <defs
     id="defs1" />
  <sodipodi:namedview
     id="namedview1"
     pagecolor="#ffffff"
     bordercolor="#111111"
     borderopacity="1"
     inkscape:showpageshadow="0"
     inkscape:pageopacity="0"
     inkscape:pagecheckerboard="1"
     inkscape:deskcolor="#d1d1d1"
     inkscape:zoom="52.687499"
     inkscape:cx="9.6702255"
     inkscape:cy="6.8707"
     inkscape:window-width="1920"
     inkscape:window-height="1011"
     inkscape:window-x="1920"
     inkscape:window-y="32"
     inkscape:window-maximized="1"
     inkscape:current-layer="svg1" />
  <text
     xml:space="preserve"
     style="font-size:13.3333px;font-family:Ubuntu;-inkscape-font-specification:Ubuntu;text-align:center;text-anchor:middle;fill:none;stroke:#000000;stroke-width:11.3386;stroke-linecap:round;stroke-linejoin:round"
     x="2.5780313"
     y="7.1743588"
     id="text1"><tspan
       sodipodi:role="line"
       id="tspan1"
       x="2.5780313"
       y="7.1743588" /></text>
  <path
     id="rect1-4-4-6"
     style="fill:#8da5f3;fill-opacity:1;stroke:none;stroke-width:8.72755;stroke-linecap:round;stroke-linejoin:round;stroke-dasharray:none"
     d="m 19.450196,3.2460939 c -0.651916,0 -1.303204,0.2504685 -1.802735,0.7499997 L 10.180664,11.46289 c -0.9990622,0.999063 -0.9990623,2.606407 0,3.60547 0.999062,0.999062 2.60836,0.999062 3.607422,-1e-6 l 7.466797,-7.4648435 c 0.999062,-0.9990625 0.999062,-2.6083598 0,-3.6074217 C 20.755352,3.4965624 20.10211,3.2460932 19.450196,3.2460939 Z m -7.57422,8.1074211 a 1.6517668,1.6517668 0 0 1 1.652344,1.652344 1.6517668,1.6517668 0 0 1 -1.652344,1.650391 1.6517668,1.6517668 0 0 1 -1.652343,-1.650391 1.6517668,1.6517668 0 0 1 1.652343,-1.652344 z" />
  <path
     id="rect1-4-4-6-9"
     style="fill:#8da5f3;fill-opacity:1;stroke:none;stroke-width:8.72755;stroke-linecap:round;stroke-linejoin:round;stroke-dasharray:none"
     d="m 4.2666016,3.2460937 c -0.6519151,0 -1.3032032,0.2504689 -1.8027344,0.7500001 -0.9990621,0.9990622 -0.9990621,2.6083596 10e-8,3.6074218 l 7.4648439,7.4648434 c 0.9990618,0.999062 2.6083588,0.999062 3.6074218,0 0.999062,-0.999062 0.999062,-2.606406 0,-3.605468 L 6.069336,3.9960938 C 5.5698049,3.4965627 4.9185167,3.2460937 4.2666016,3.2460937 Z m 7.6093744,8.1074213 a 1.6517668,1.6517668 0 0 1 1.652344,1.652344 1.6517668,1.6517668 0 0 1 -1.652344,1.650391 1.6517668,1.6517668 0 0 1 -1.652343,-1.650391 1.6517668,1.6517668 0 0 1 1.652343,-1.652344 z" />
  <circle
     style="fill:#8da5f3;fill-opacity:1;stroke:none;stroke-width:3.41122;stroke-linecap:round;stroke-linejoin:round;stroke-opacity:1"
     id="path1"
     cx="3.9896045"
     cy="5.6398125"
     r="3.6565967" />
</svg>
