<?xml version="1.0" encoding="UTF-8" standalone="no"?>
<svg
   height="16"
   viewBox="0 0 16 16"
   width="16"
   version="1.1"
   id="svg1"
   sodipodi:docname="la_ik_fabr.svg"
   inkscape:version="1.3.2 (1:1.3.2+202404261509+091e20ef0f)"
   xmlns:inkscape="http://www.inkscape.org/namespaces/inkscape"
   xmlns:sodipodi="http://sodipodi.sourceforge.net/DTD/sodipodi-0.dtd"
   xmlns="http://www.w3.org/2000/svg"
   xmlns:svg="http://www.w3.org/2000/svg">
  <defs
     id="defs1" />
  <sodipodi:namedview
     id="namedview1"
     pagecolor="#ffffff"
     bordercolor="#111111"
     borderopacity="1"
     inkscape:showpageshadow="0"
     inkscape:pageopacity="0"
     inkscape:pagecheckerboard="1"
     inkscape:deskcolor="#d1d1d1"
     inkscape:zoom="128"
     inkscape:cx="5.7226562"
     inkscape:cy="8.546875"
     inkscape:window-width="1920"
     inkscape:window-height="1011"
     inkscape:window-x="1920"
     inkscape:window-y="32"
     inkscape:window-maximized="1"
     inkscape:current-layer="svg1" />
  <text
     xml:space="preserve"
     style="font-size:16.2294px;font-family:Ubuntu;-inkscape-font-specification:Ubuntu;text-align:center;text-anchor:middle;fill:none;stroke:#000000;stroke-width:13.8015;stroke-linecap:round;stroke-linejoin:round"
     x="0.4943206"
     y="9.2009687"
     id="text1"><tspan
       sodipodi:role="line"
       id="tspan1"
       x="0.4943206"
       y="9.2009687"
       style="stroke-width:13.8015" /></text>
  <path
     id="rect1-4"
     style="fill:#8da5f3;fill-opacity:1;stroke:none;stroke-width:3.3231;stroke-linecap:round;stroke-linejoin:round;stroke-dasharray:none"
     d="M 6.8717469 10.741775 C 6.4759756 10.864359 6.1899491 11.231465 6.1899491 11.668567 C 6.1899491 12.206536 6.6220192 12.640058 7.1599897 12.640058 L 11.18182 12.64015 C 11.719789 12.64015 12.152805 12.206195 12.152805 11.668223 C 12.152805 11.130254 11.71885 10.697238 11.180878 10.697238 L 10.345612 10.696602 A 0.28426147 0.28426147 0 0 1 10.208714 10.895046 A 0.28426147 0.28426147 0 0 1 9.9234983 10.894632 A 0.28426147 0.28426147 0 0 1 9.7875101 10.696515 L 9.2336869 10.697304 A 0.28426147 0.28426147 0 0 1 9.0962839 10.893861 A 0.28426147 0.28426147 0 0 1 8.8134599 10.894829 A 0.28426147 0.28426147 0 0 1 8.6755851 10.697217 L 8.1236485 10.6975 A 0.28426147 0.28426147 0 0 1 7.9862455 10.894057 A 0.28426147 0.28426147 0 0 1 7.7010293 10.893644 A 0.28426147 0.28426147 0 0 1 7.5655466 10.697414 L 7.1609345 10.69664 C 7.0600651 10.69664 6.9630788 10.713486 6.8717469 10.741775 z "
     transform="rotate(15)" />
  <path
     id="rect1-4-6"
     style="fill:#8da5f3;fill-opacity:1;stroke:none;stroke-width:3.3231;stroke-linecap:round;stroke-linejoin:round;stroke-dasharray:none"
     d="M 8.1500168 2.8876631 C 8.0754442 3.025279 8.0338521 3.1824691 8.0338521 3.350585 C 8.0338521 3.8885552 8.4666458 4.3215159 9.0046163 4.3215159 L 13.023673 4.3212421 C 13.561645 4.3212421 13.994604 3.8884482 13.994604 3.350478 C 13.994604 2.8125075 13.561812 2.3795471 13.02384 2.3795471 L 12.09623 2.3807464 A 0.28426149 0.28426149 0 0 1 11.955413 2.6129291 A 0.28426149 0.28426149 0 0 1 11.671001 2.6133585 A 0.28426149 0.28426149 0 0 1 11.530073 2.3808903 L 10.98669 2.3806511 A 0.28426149 0.28426149 0 0 1 10.844897 2.6145252 A 0.28426149 0.28426149 0 0 1 10.561461 2.6132632 A 0.28426149 0.28426149 0 0 1 10.418841 2.3798185 L 9.8754584 2.3795793 A 0.28426149 0.28426149 0 0 1 9.7336653 2.6134534 A 0.28426149 0.28426149 0 0 1 9.4492528 2.6138828 A 0.28426149 0.28426149 0 0 1 9.3093014 2.3797232 L 9.004783 2.3798208 C 8.6349285 2.3798208 8.3140761 2.5849083 8.1500168 2.8876631 z "
     transform="rotate(60)" />
  <path
     id="rect1-4-6-3"
     style="fill:#8da5f3;fill-opacity:1;stroke:none;stroke-width:3.3231;stroke-linecap:round;stroke-linejoin:round;stroke-dasharray:none"
     d="M 4.0136719 -1.3535156 C 4.0136719 -0.8155453 4.4483579 -0.38085937 4.9863281 -0.38085938 L 9.0058594 -0.38085938 C 9.5438296 -0.38085938 9.9765625 -0.8155453 9.9765625 -1.3535156 C 9.9765625 -1.8914861 9.5438296 -2.3242188 9.0058594 -2.3242188 L 8.5019531 -2.3242188 A 0.28426147 0.28426147 0 0 1 8.359375 -2.0839844 A 0.28426147 0.28426147 0 0 1 8.0742188 -2.0839844 A 0.28426147 0.28426147 0 0 1 7.9316406 -2.3242188 L 7.390625 -2.3242188 A 0.28426147 0.28426147 0 0 1 7.2480469 -2.0839844 A 0.28426147 0.28426147 0 0 1 6.9628906 -2.0839844 A 0.28426147 0.28426147 0 0 1 6.8222656 -2.3242188 L 6.2792969 -2.3242188 A 0.28426147 0.28426147 0 0 1 6.1367188 -2.0839844 A 0.28426147 0.28426147 0 0 1 5.8535156 -2.0839844 A 0.28426147 0.28426147 0 0 1 5.7109375 -2.3242188 L 4.9863281 -2.3242188 C 4.4483579 -2.3242188 4.0136719 -1.8914861 4.0136719 -1.3535156 z "
     transform="rotate(90)" />
  <path
     id="rect1-4-6-3-5"
     style="fill:#8da5f3;fill-opacity:1;stroke:none;stroke-width:3.3231;stroke-linecap:round;stroke-linejoin:round;stroke-dasharray:none"
     d="M -3.4779523 -4.0580412 C -3.3403364 -3.9834688 -3.1831461 -3.9418766 -3.0150305 -3.9418766 L 1.0057182 -3.9411737 C 1.5436884 -3.9411737 1.9766491 -4.3739674 1.9766491 -4.9119379 C 1.9766491 -5.4499081 1.5438554 -5.8828688 1.0058849 -5.8828688 L 0.40120755 -5.8824119 A 0.28426149 0.28426149 0 0 1 0.26084422 -5.6432017 A 0.28426149 0.28426149 0 0 1 -0.023568286 -5.6427723 A 0.28426149 0.28426149 0 0 1 -0.16494944 -5.8822679 L -0.70833249 -5.8825071 A 0.28426149 0.28426149 0 0 1 -0.85136384 -5.6425821 A 0.28426149 0.28426149 0 0 1 -1.1357763 -5.6421527 A 0.28426149 0.28426149 0 0 1 -1.2761809 -5.8833398 L -1.822232 -5.8828641 A 0.28426149 0.28426149 0 0 1 -1.9625953 -5.6436539 A 0.28426149 0.28426149 0 0 1 -2.2470078 -5.6432245 A 0.28426149 0.28426149 0 0 1 -2.388389 -5.8827202 L -3.0148637 -5.8835716 C -3.5528342 -5.8835716 -3.9857946 -5.4507777 -3.9857946 -4.9128075 C -3.9857946 -4.5429527 -3.7807071 -4.2221005 -3.4779523 -4.0580412 z "
     transform="rotate(150)" />
  <path
     id="rect1-4-6-3-5-2"
     style="fill:#8da5f3;fill-opacity:1;stroke:none;stroke-width:3.3231;stroke-linecap:round;stroke-linejoin:round;stroke-dasharray:none"
     d="M -5.6173979 -0.3328424 C -5.2216265 -0.45542567 -4.9356001 -0.82253344 -4.9356001 -1.2596343 C -4.9356001 -1.7976048 -5.369557 -2.2306197 -5.9075272 -2.2306197 L -6.599242 -2.2313015 A 0.28426147 0.28426147 45 0 1 -6.7361395 -2.032858 A 0.28426147 0.28426147 45 0 1 -7.0213557 -2.0332715 A 0.28426147 0.28426147 45 0 1 -7.1592304 -2.2308828 L -7.711167 -2.2305996 A 0.28426147 0.28426147 0 0 1 -7.8480645 -2.0321561 A 0.28426147 0.28426147 0 0 1 -8.1313941 -2.0330751 A 0.28426147 0.28426147 0 0 1 -8.2692689 -2.2306864 L -8.8212055 -2.2304032 A 0.28426147 0.28426147 0 0 1 -8.9586085 -2.0338463 A 0.28426147 0.28426147 0 0 1 -9.2433191 -2.0323732 A 0.28426147 0.28426147 0 0 1 -9.3811939 -2.2299845 L -9.9274708 -2.2312178 C -10.46544 -2.2312178 -10.898962 -1.7991477 -10.898962 -1.2611772 C -10.898962 -0.72320689 -10.465006 -0.29019182 -9.9270345 -0.29019182 L -5.907091 -0.28959377 C -5.8062216 -0.28959377 -5.7087297 -0.30455393 -5.6173979 -0.3328424 z "
     transform="rotate(-165)" />
  <path
     id="rect1-4-6-3-5-2-7"
     style="fill:#8da5f3;fill-opacity:1;stroke:none;stroke-width:3.3231;stroke-linecap:round;stroke-linejoin:round;stroke-dasharray:none"
     d="M -9.0529003 4.6997742 C -8.8773802 4.5242539 -8.7684003 4.2809877 -8.7684003 4.0120023 C -8.7684003 3.4740321 -9.2013206 3.0411116 -9.7392911 3.0411116 L -10.283432 3.0411116 A 0.28426149 0.28426149 0 0 1 -10.424301 3.2703689 A 0.28426149 0.28426149 0 0 1 -10.70742 3.2689878 A 0.28426149 0.28426149 0 0 1 -10.84967 3.0411116 L -11.39381 3.0411116 A 0.28426149 0.28426149 0 0 1 -11.534679 3.2703689 A 0.28426149 0.28426149 0 0 1 -11.819179 3.2703689 A 0.28426149 0.28426149 0 0 1 -11.960048 3.0411116 A 0.28426149 0.28426149 0 0 1 -11.961429 3.0397305 L -12.504189 3.0411116 A 0.28426149 0.28426149 0 0 1 -12.646439 3.2689878 A 0.28426149 0.28426149 0 0 1 -12.930939 3.2689878 A 0.28426149 0.28426149 0 0 1 -13.070427 3.0411116 A 0.28426149 0.28426149 0 0 1 -13.071808 3.0397305 L -13.758199 3.0411116 C -14.296168 3.0411116 -14.730471 3.475413 -14.730471 4.0133834 C -14.730471 4.5513539 -14.297549 4.9842742 -13.75958 4.9842742 L -9.7392911 4.9828931 C -9.4703057 4.9828931 -9.2284204 4.8752942 -9.0529003 4.6997742 z "
     transform="rotate(-135)" />
  <path
     id="rect1-4-6-3-5-2-7-6"
     style="fill:#8da5f3;fill-opacity:1;stroke:none;stroke-width:3.3231;stroke-linecap:round;stroke-linejoin:round;stroke-dasharray:none"
     d="M -13.91564 4.5796213 C -13.740122 4.404101 -13.63114 4.1608348 -13.63114 3.8918494 C -13.63114 3.3538792 -14.065443 2.9195776 -14.603412 2.9195776 L -15.014971 2.9195776 A 0.28426149 0.28426149 0 0 1 -15.157221 3.1585024 A 0.28426149 0.28426149 0 0 1 -15.441721 3.1585024 A 0.28426149 0.28426149 0 0 1 -15.582589 2.9209587 L -16.12673 2.9209587 A 0.28426149 0.28426149 0 0 1 -16.26898 3.1598834 A 0.28426149 0.28426149 0 0 1 -16.552099 3.1585024 A 0.28426149 0.28426149 0 0 1 -16.69573 2.9209587 L -17.237109 2.9209587 A 0.28426149 0.28426149 0 0 1 -17.379359 3.1598834 A 0.28426149 0.28426149 0 0 1 -17.663859 3.1598834 A 0.28426149 0.28426149 0 0 1 -17.806109 2.9209587 L -18.623701 2.9209587 C -19.161673 2.9209587 -19.594592 3.3538792 -19.594592 3.8918494 C -19.594592 4.4298199 -19.161673 4.8627402 -18.623701 4.8627402 L -14.602031 4.8627402 C -14.333048 4.8627402 -14.091161 4.7551413 -13.91564 4.5796213 z "
     transform="rotate(-135)" />
  <path
     id="rect1-4-6-3-5-2-7-61"
     style="fill:#8da5f3;fill-opacity:1;stroke:none;stroke-width:3.3231;stroke-linecap:round;stroke-linejoin:round;stroke-dasharray:none"
     d="M -16.665665 9.0923414 C -16.591093 8.9547255 -16.548524 8.795844 -16.548524 8.6277281 C -16.548524 8.0897579 -16.981319 7.6567972 -17.519288 7.6567972 L -18.067031 7.6562964 A 0.28426149 0.28426149 0 0 1 -18.204062 7.8545798 A 0.28426149 0.28426149 0 0 1 -18.488475 7.8550092 A 0.28426149 0.28426149 0 0 1 -18.62616 7.6559871 L -19.176571 7.6562011 A 0.28426149 0.28426149 0 0 1 -19.316271 7.8551994 A 0.28426149 0.28426149 0 0 1 -19.599706 7.8539374 A 0.28426149 0.28426149 0 0 1 -19.737392 7.6549152 L -20.287802 7.6551292 A 0.28426149 0.28426149 0 0 1 -20.425811 7.8551041 A 0.28426149 0.28426149 0 0 1 -20.710223 7.8555335 A 0.28426149 0.28426149 0 0 1 -20.847908 7.6565114 L -21.540037 7.6560944 C -22.078006 7.6560944 -22.511944 8.0905795 -22.511944 8.62855 C -22.511944 9.1665204 -22.079152 9.5994809 -21.54118 9.5994809 L -17.519455 9.5984923 C -17.1496 9.5984923 -16.829725 9.3950963 -16.665665 9.0923414 z "
     transform="rotate(-120)" />
  <path
     id="rect1-4-6-3-1"
     style="fill:#8da5f3;fill-opacity:1;stroke:none;stroke-width:3.3231;stroke-linecap:round;stroke-linejoin:round;stroke-dasharray:none"
     d="M 10.038497 3.4418751 C 9.7665045 3.61366 9.5864731 3.9176761 9.5864731 4.2644148 C 9.5864731 4.8023852 10.019435 5.235179 10.557404 5.235179 L 10.618698 5.2358751 A 0.28426149 0.28426149 0 0 1 10.759696 5.0191533 A 0.28426149 0.28426149 0 0 1 11.044109 5.0195827 A 0.28426149 0.28426149 0 0 1 11.183879 5.2343275 L 11.72993 5.2348032 A 0.28426149 0.28426149 0 0 1 11.870928 5.0180815 A 0.28426149 0.28426149 0 0 1 12.15534 5.0185109 A 0.28426149 0.28426149 0 0 1 12.296087 5.2349471 L 12.842138 5.2354228 A 0.28426149 0.28426149 0 0 1 12.981444 5.0196777 A 0.28426149 0.28426149 0 0 1 13.26488 5.0184156 A 0.28426149 0.28426149 0 0 1 13.405627 5.2348519 L 14.578153 5.2344761 C 15.116122 5.2344761 15.548917 4.8015157 15.548917 4.2635452 C 15.548917 3.7255748 15.115955 3.292781 14.577986 3.292781 L 10.557237 3.2934839 C 10.389121 3.2934839 10.231932 3.3350762 10.094315 3.4096485 C 10.075394 3.4199023 10.05663 3.4304228 10.038497 3.4418751 z "
     transform="rotate(30)" />
  <path
     id="rect1-4-6-3-1-7"
     style="fill:#8da5f3;fill-opacity:1;stroke:none;stroke-width:3.3231;stroke-linecap:round;stroke-linejoin:round;stroke-dasharray:none"
     d="M -0.41293931 -14.845099 C -0.2374192 -14.669579 0.0072283948 -14.56198 0.27621359 -14.56198 L 1.3092524 -14.56198 A 0.28426149 0.28426149 0 0 1 1.4515024 -14.795381 A 0.28426149 0.28426149 0 0 1 1.7346213 -14.796762 A 0.28426149 0.28426149 0 0 1 1.8768713 -14.560599 L 2.4210121 -14.560599 A 0.28426149 0.28426149 0 0 1 2.561881 -14.795381 A 0.28426149 0.28426149 0 0 1 2.846381 -14.795381 A 0.28426149 0.28426149 0 0 1 2.9872499 -14.560599 L 3.5313907 -14.560599 A 0.28426149 0.28426149 0 0 1 3.6722596 -14.795381 A 0.28426149 0.28426149 0 0 1 3.9567596 -14.795381 A 0.28426149 0.28426149 0 0 1 4.0976286 -14.560599 L 4.2965023 -14.560599 C 4.8344728 -14.560599 5.2673931 -14.993521 5.2673931 -15.53149 C 5.2673931 -16.069459 4.8330915 -16.503762 4.2951213 -16.503762 L 0.27621359 -16.503762 C -0.2617568 -16.503762 -0.69467717 -16.07084 -0.69467717 -15.532871 C -0.69467717 -15.263885 -0.58845944 -15.02062 -0.41293931 -14.845099 z "
     transform="rotate(135)" />
  <path
     id="path4"
     style="fill:#8da5f3;fill-opacity:1;stroke:#8da5f3;stroke-width:0.2;stroke-linecap:round;stroke-linejoin:round;stroke-dasharray:none;stroke-opacity:1"
     d="M 5.8164062 6.4140625 C 5.7926323 6.6513957 5.6852463 7.0816335 5.625 7.5527344 A 0.28426149 0.28426149 0 0 1 5.6796875 7.6191406 A 0.28426149 0.28426149 0 0 1 5.6796875 7.9042969 A 0.28426149 0.28426149 0 0 1 5.5878906 8 C 5.5794544 8.2261443 5.5887511 8.4503903 5.6328125 8.6582031 A 0.28426149 0.28426149 0 0 1 5.71875 8.6914062 A 0.28426149 0.28426149 0 0 1 5.8613281 8.9375 A 0.28426149 0.28426149 0 0 1 5.8027344 9.1074219 C 5.9183897 9.2978284 6.0879681 9.4520046 6.3300781 9.5488281 L 7.7304688 8.3886719 C 6.8812269 7.8676834 6.1463451 7.3593315 5.8164062 6.4140625 z " />
</svg>
